<?xml version="1.0" standalone="no"?>
<!DOCTYPE svg PUBLIC "-//W3C//DTD SVG 1.1//EN" "http://www.w3.org/Graphics/SVG/1.1/DTD/svg11.dtd" >
<svg xmlns="http://www.w3.org/2000/svg">
<metadata></metadata>
<defs>
<font id="jorge_v03regular" horiz-adv-x="805" >
<font-face units-per-em="2048" ascent="1638" descent="-410" />
<missing-glyph horiz-adv-x="512" />
<glyph horiz-adv-x="2048" />
<glyph horiz-adv-x="2048" />
<glyph unicode="&#xd;" horiz-adv-x="2048" />
<glyph unicode=" "  horiz-adv-x="512" />
<glyph unicode="&#x09;" horiz-adv-x="512" />
<glyph unicode="&#xa0;" horiz-adv-x="512" />
<glyph unicode="!" horiz-adv-x="586" d="M58.5 767.5q-45.5 44.5 14.5 128.5q83 39 143.5 13.5t82 -73.5t-5 -95.5t-117.5 -51.5q-72 34 -117.5 78.5zM146 1047q-3 48 18 121.5t36 123.5q12 103 29.5 206.5t32.5 206.5q12 23 13 49t13 51q60 0 165.5 -6.5t36.5 -99.5q-18 -85 -45 -167.5t-43 -168.5 q-22 -42 -49.5 -200.5t-69.5 -163.5q-36 13 -71 20t-66 28z" />
<glyph unicode="&#x22;" horiz-adv-x="568" d="M18 1727q14 67 33 78t88 3q31 -16 70.5 -18t41.5 -40q-66 -68 -90.5 -147.5t53.5 -168.5q0 -29 -38 -37q-102 56 -130 140.5t-28 189.5zM306 1562q-39 123 22 231q12 35 93.5 9t82.5 -52q-42 -75 -72 -157t39 -162q19 -6 16 -20t-24 -17q-118 45 -157 168z" />
<glyph unicode="#" horiz-adv-x="1121" d="M32.5 1386.5q-17.5 78.5 9.5 88.5q54 0 115 10t118 16q28 14 19.5 132t54.5 118q21 -21 75 -10t69 -14q0 -54 -16.5 -107t-19.5 -107q44 0 88.5 4.5t90.5 6.5q23 15 24 85t-2 89q-33 32 64.5 28t136.5 -4q9 -16 -11.5 -90.5t-24.5 -101.5q32 -12 133.5 -9.5t111.5 -11.5 q-19 -36 -28.5 -84.5t-13.5 -90.5q-60 9 -115 18t-116 9q-24 -111 -25 -126.5t97 -15.5q122 -30 129.5 -6.5t-3.5 -156.5q-7 -30 -113 -17t-148 -3q-10 -61 -19.5 -123t-12.5 -125q-15 -19 -33.5 -18t-41.5 1q-35 6 -73.5 4t-38.5 39q30 30 36.5 103.5t5.5 118.5 q-80 -4 -149 -13q-47 -18 -35 -107.5t-18 -130.5q-154 -4 -157 30.5t5 163.5q-24 -6 -59 -16.5t-50 10.5q-37 162 -28 145.5t120 40.5q71 12 68 52t2 112q-12 6 -93 -9t-99 -15q-12 9 -29.5 87.5zM403 1203q26 -2 37 -2q111 6 137 15t35 113q24 33 -6.5 34t-48.5 1 q-118 -5 -129 -22t-25 -139z" />
<glyph unicode="$" horiz-adv-x="885" d="M-22 952q-1 17 28.5 79t48.5 62q8 -11 105.5 -41t113.5 -29v82.5v83.5q-132 6 -211.5 78t13.5 212q2 1 3.5 2l4.5 3q18 51 97 90.5t130 60.5q15 134 16 140t143 9q13 -14 4.5 -57.5t-10.5 -60.5q58 -3 130 -4t126 -34q14 0 22.5 5.5t23.5 -8.5q1 -50 -23 -88t-33 -84 q-18 -23 -46.5 -11t-48.5 21q-114 16 -145.5 20t-39.5 -138q177 -21 295 -134.5t-50 -295.5q-22 -11 -45 -23.5t-46 -17.5q-21 -16 -78.5 -19t-81.5 -5q-9 -42 6.5 -91t15.5 -91q-8 -8 -30 -15t-32 -7q-90 5 -92.5 29t-8.5 110q-9 8 -9 32.5v36.5q-78 6 -157 30t-139 68z M248 1348q63 4 60.5 25.5t-2.5 83.5q-112 -16 -58 -109zM419.5 1097q1.5 -45 1.5 -90q48 5 109 23t61 82q-21 44 -72 59.5t-95 15.5q-6 -45 -4.5 -90z" />
<glyph unicode="%" horiz-adv-x="976" d="M8 1420q-27 141 72 224.5t234 10.5q27 -52 53 -80.5t20 -97.5q5 -6 1 -24t-4 -27q-39 -66 -112.5 -77t-139.5 -14q-40 24 -65 31.5t-59 53.5zM83 925q-1 24 82 118t118 120q44 73 123 138.5t118 136.5q99 83 167 198q24 17 29 15t20 40q18 9 58 -28.5t57 -53.5 q35 -5 35 -38q-102 -115 -210.5 -226t-213.5 -224q-11 -19 -53.5 -69.5t-89 -104t-83.5 -94.5l-37 -41q-49 53 -120 113zM135 1449q54 3 114 29.5t11 93.5q-24 0 -34 -5q-35 -6 -81 -51t-10 -67zM495 963.5q20 82.5 106 153.5q33 37 43 40t57 3q77 39 153 -37t76 -149 q-18 -26 -13.5 -61.5t-31.5 -60.5q-16 -54 -107 -70t-134 -16q-18 5 -46 14t-35 23q-88 78 -68 160.5zM630.5 950.5q-39.5 -44.5 7.5 -64.5q56 6 89 17.5t75 50.5q39 68 -15 87t-99 -22q-18 -24 -57.5 -68.5z" />
<glyph unicode="&#x26;" horiz-adv-x="992" d="M34 1205q102 172 243 236q1 38 -12 83.5t-13 90.5q15 145 155 183t235 -72q45 -96 13 -170t-103 -136q-99 -28 -57.5 -79t79.5 -119q51 -63 64 -62t67 102q26 110 73.5 37.5t92.5 -82.5q0 -12 10 -27t-11 -36q-25 -49 -55 -95q-56 -38 -26 -65t68 -57q46 -18 67 -25.5 t0 -67.5q-34 -39 -47.5 -63.5t-76.5 -30.5q-15 18 -74 82t-63 65q-114 -102 -213.5 -120.5t-252.5 -2.5q-39 32 -72.5 51t-57.5 67q-135 141 -33 313zM162.5 1069q-35.5 -119 116.5 -162q82 10 135 23.5t101 85.5q25 20 8 30t-29 37q-45 43 -77.5 99t-59.5 109q-23 22 -37 2 t-38 -32q-84 -73 -119.5 -192zM397 1583.5q-13 -41.5 16 -79.5q34 6 60 38t47 53q0 60 -28 68t-55 -15t-40 -64.5z" />
<glyph unicode="'" horiz-adv-x="400" d="M30 1372q-20 21 7.5 70t36.5 67q21 69 34 137.5t31 138.5q18 27 128.5 5t113.5 -48q-22 -45 -42.5 -91t-54.5 -82q-17 -43 -107 -118.5t-147 -78.5z" />
<glyph unicode="(" horiz-adv-x="470" d="M28.5 1207q-6.5 144 52.5 261q15 56 41 107.5t50 103.5q37 37 85.5 107t101.5 82q24 36 56.5 -45t32.5 -107q-84 -70 -152 -173.5t-87 -213.5q-53 -106 5 -259t129 -236q5 -4 49 -45.5t45 -45.5q-24 -30 -57 -79.5t-73 -53.5q-41 45 -78 100.5t-79 98.5q-5 11 -35.5 70.5 t-33.5 62.5q-46 121 -52.5 265z" />
<glyph unicode=")" horiz-adv-x="513" d="M62 760q109 90 165 202q45 45 76.5 201.5t-2.5 205.5q-47 213 -204 329q-5 24 -23 29q-2 13 57.5 92t87.5 19q47 -38 103.5 -120.5t89.5 -138.5q54 -139 65.5 -292t-54.5 -293q-27 -90 -86 -191t-134 -152q-43 -48 -74 -53q-21 29 -44 79t-23 83z" />
<glyph unicode="*" horiz-adv-x="943" d="M-8 1275q25 3 143 -5t129 3q-34 40 -63.5 70t-73.5 56q-1 36 49 80.5t86 44.5q23 -24 46.5 -70t40 -71.5t23 -8t-3.5 121.5q0 21 -5 77.5t12 70.5q39 -9 72 -7.5l77 3.5q0 -69 0.5 -136t0.5 -136q8 -9 83.5 78t100.5 85q95 -133 77.5 -119t-118.5 -88q-58 -33 -48 -39 t71 3q51 -1 102.5 -2t102.5 -1q1 -3 1 -73.5t2 -76.5q-37 -1 -75.5 1t-209.5 5q7 -42 65 -87t82 -89q28 -18 -18 -49.5t-64 -46.5q-12 -31 -80.5 74t-78.5 105q-2 -17 6 -141.5t-8 -130.5q-37 0 -72 -4.5t-71 -8.5q-3 76 -4 110t-1 163q-24 -8 -74.5 -72.5t-73.5 -85.5 q-26 0 -57.5 37t-50.5 54q-61 20 19 67.5t80 67.5q3 0 22.5 12.5t9.5 20.5q-63 0 -124.5 -5t-122.5 -5l-4 74t-2 74z" />
<glyph unicode="+" horiz-adv-x="1011" d="M22.5 1286q37.5 -16 94.5 11q66 9 133 23.5t138 23.5q10 78 13.5 158.5t12.5 160.5q-45 45 70.5 56.5t123.5 -8.5q0 -17 -5.5 -52t-17.5 -47q-12 -59 -12.5 -123.5t4.5 -124.5q56 -6 212.5 3.5t173.5 -20.5q0 -25 -2.5 -97t-30.5 -81q-93 2 -178 11t-178 0 q-4 -106 -1 -182q23 -145 15 -182.5t-161 -51.5q-35 27 -32.5 120.5t2.5 144.5q-16 30 -5.5 81.5t-21.5 53.5q-59 -14 -116 -27t-114 -24q-74 -38 -87 -10t-26 85q-42 114 -4.5 98z" />
<glyph unicode="," horiz-adv-x="328" d="M48 876q57 144 198 74q51 -48 49.5 -124t-29.5 -133q-47 -36 -83.5 -97.5t-105.5 -64.5q-13 15 11 43q25 45 53.5 89t26.5 101q-62 7 -91 23t-29 89z" />
<glyph unicode="-" d="M26 1245v6.5v7.5q16 19 130 33.5t246 21.5t243 6t122 -13q0 -2 -1.5 -80t-5.5 -82q-126 -1 -250 -5.5t-248 -7.5q-42 -5 -85 -13.5t-84 -10.5q-34 20 -35.5 71.5t-31.5 65.5z" />
<glyph unicode="." horiz-adv-x="505" d="M64.5 869.5q9.5 83.5 87.5 98.5q64 0 99.5 -23.5t35.5 -93.5q-16 -72 -54.5 -85.5t-107.5 -14.5q-70 35 -60.5 118.5z" />
<glyph unicode="/" horiz-adv-x="922" d="M8.5 735q-61.5 24 7.5 87q41 55 85 106t87 105q1 2 28 40.5t60 84t62.5 83t35.5 37.5q15 30 51.5 63.5t45.5 67.5q6 0 79.5 90t73.5 91q2 0 56 68.5t63 83.5q19 0 68.5 -29t49.5 -48q16 -8 18 -18q-126 -126 -235.5 -279t-217.5 -296q-51 -34 -101 -122.5t-97 -135.5 q-14 -18 -60 -81.5t-61 -68.5q-37 47 -98.5 71z" />
<glyph unicode="0" horiz-adv-x="894" d="M8.5 1195.5q-3.5 193.5 64.5 328.5q30 39 80 95t98 69q24 19 13 38.5t24 32.5q102 9 164 14t160 -31q42 -36 93 -85.5t65 -103.5q82 -198 35.5 -404.5t-222.5 -325.5q-18 -28 -102 -47.5t-114 -22.5q-15 12 -65 21t-80 27q-67 17 -103 83q-107 118 -110.5 311.5z M161 1376q-36 -135 9 -276.5t183 -195.5q176 9 220.5 78.5t105.5 220.5q13 106 3 199q-42 188 -176 205t-259 -97q-44 -59 -86 -134z" />
<glyph unicode="1" horiz-adv-x="581" d="M15 1541q33 39 122.5 100t89.5 77q25 15 42 32.5t49 31.5q16 0 33 -2t84 -2q6 -249 -9.5 -499t-18.5 -503q-11 -11 -76.5 -11h-83.5q-17 21 -9.5 60.5t10.5 64.5q1 162 9.5 323t14.5 323q-21 -14 -90.5 -71t-92.5 -44q-16 25 -45 60.5t-29 59.5z" />
<glyph unicode="2" horiz-adv-x="853" d="M35 1579q107 121 300.5 183t292.5 -133q13 -37 30 -106t-13 -99q-9 -97 -68 -165q-9 -36 -61 -103t-76 -99q-16 -28 -49.5 -59t8.5 -33q99 17 199 33t202 31q6 -44 8 -87.5t5 -88.5q-12 -11 -70 -18.5t-127.5 -12.5t-133.5 -8t-86 -5q-78 -12 -153 -22t-151 -14 q-35 22 -17.5 67.5t55 95t78.5 93.5t53 65q23 25 73.5 87t95.5 133t67.5 136.5t-9.5 98.5q-21 72 -89.5 69.5t-119.5 -27.5q-33 -27 -69.5 -55t-57.5 -64q-19 -6 -31.5 -16.5t-27.5 19.5l-54 48t-4 56z" />
<glyph unicode="3" horiz-adv-x="896" d="M12 991q23 38 58.5 79.5t84.5 41.5q77 -105 180 -139q65 -43 159 -35.5t149 68.5q46 93 -5 173.5t-144 91.5q-46 30 -128.5 16t-26.5 57q7 44 63 113.5t82 108.5q3 24 -91.5 17t-103.5 -10q-13 -2 -116.5 -13.5l-103.5 -11.5q-6 22 -16 99.5t2 89.5q33 0 66 1t66 3 q122 26 270.5 22.5t275.5 -3.5q19 -10 24 -35q11 -12 -28 -63t-83.5 -108t-72.5 -103.5t6 -48.5q6 6 84 -24.5t86 -45.5q81 -69 93 -157t-14 -187q-48 -127 -162 -179t-240 -57q-60 32 -143.5 37t-135.5 59q-31 17 -83 65t-52 78z" />
<glyph unicode="4" horiz-adv-x="821" d="M-7 1215q1 1 5 8q30 132 66.5 261.5t67.5 259.5q163 3 149 -34.5t-39 -181.5q-4 -12 -20.5 -56t-27 -88.5t-5 -75t45.5 -15.5q108 0 141.5 0.5t126.5 3.5q22 110 32.5 223t22.5 224q14 1 85.5 1t83.5 -12q3 -101 -17 -216t-29 -220q37 -12 50.5 -12.5t-0.5 -47.5 q0 -70 -1 -80t-64 -18q-3 -7 -8.5 -56.5t-9.5 -108t-4.5 -108t5.5 -55.5q-1 -41 -10.5 -57.5t-48.5 -19.5q-35 27 -80 8.5t-52 25.5q3 91 12 184t13 184q-93 3 -175.5 -1t-177.5 -10q-98 22 -117.5 6t-19.5 84z" />
<glyph unicode="5" horiz-adv-x="885" d="M6 976q18 19 62 70t66 3q45 -32 97 -62.5t106 -49.5q122 -6 239.5 41t94.5 211q-85 117 -152 126t-228 9q-102 -35 -146 39q-12 96 -11.5 199t0.5 202q37 37 175.5 23t189.5 12h96.5h97.5q48 23 58 -51.5t-11 -79.5q-1 -6 -2.5 -12t-1.5 -12q-116 -3 -230.5 -8t-228.5 -5 q-19 -10 -10 -74.5t15 -88.5q-1 0 69 4q36 0 150.5 -7.5t149.5 -53.5q89 -54 146 -149q46 -26 44.5 -85t-27.5 -123.5t-64.5 -122t-65.5 -79.5q-94 -45 -166 -68t-184 -24q-74 7 -201 61t-127 155z" />
<glyph unicode="6" horiz-adv-x="840" d="M3.5 1185q4.5 125 25.5 156q8 78 85.5 193.5t146.5 149.5q35 36 113 78t131 42q6 -7 24.5 -73t18.5 -86q-128 -17 -236 -130t-127 -236q0 -81 6.5 -63t60.5 33q124 97 307 97q69 -6 146.5 -68t77.5 -136q17 -18 4 -102.5t-46 -103.5q-13 -60 -154.5 -115t-183.5 -64 q-17 0 -33.5 -0.5t-32.5 -0.5q-15 9 -31 6t-31 9q-72 6 -159.5 103.5t-95.5 162.5q-21 23 -16.5 148zM224.5 1029q-17.5 -35 41.5 -57q34 -48 96 -39t86 -10q31 4 60.5 27t62.5 32q47 35 54 65t10 90q-18 47 -75.5 54.5t-96.5 0.5q-17 -6 -71.5 -32.5t-102 -61t-65 -69.5z " />
<glyph unicode="7" horiz-adv-x="812" d="M3 1786q2 3 57.5 8t121.5 9.5t121 8.5t57 4q93 1 185.5 6t186.5 8q28 -12 21.5 -32.5t-17.5 -42.5q-5 -37 -17 -111q-35 -34 -70 -140t-31 -157q129 0 142.5 -12t-1.5 -138q-24 -24 -92 -18.5t-101 5.5q-9 -33 -33.5 -169t-0.5 -159q0 -75 -18 -81.5t-80 -9.5 q-30 17 -69.5 16.5t-56.5 17.5q-3 75 20.5 156.5t29.5 157.5q39 74 11 72t-98 -4q-90 -9 -94 5.5t-15 98.5q0 9 -1 28t4 24q33 3 64.5 4t189.5 6q20 20 52 136t38 144q11 20 13 28q-19 -2 -87 -6.5t-144 -12t-138.5 -18.5t-70.5 -26q-54 -32 -66.5 66.5t-12.5 127.5z" />
<glyph unicode="8" horiz-adv-x="858" d="M25 1567q18 132 166 208.5t268 54.5q17 -9 61 -20t52 -32q73 -20 90 -99.5t17 -139.5q27 -71 -25.5 -92.5t38.5 -62.5q86 -69 106 -134.5t20 -171.5q-13 -13 -14.5 -47.5t-16.5 -49.5q-19 -108 -176.5 -159.5t-248.5 -56.5q-65 9 -143 34t-118 75q-69 36 -71 115.5 t9 139.5q9 9 10 31.5t13 34.5q3 43 39 87t76 60q-6 18 -40 26.5t-40 33.5q-33 12 -66 75t-6 90zM207.5 1532q23.5 -60 134.5 -84q87 3 145 40t58 133q-32 90 -120.5 82.5t-150.5 -38.5q-90 -73 -66.5 -133zM224.5 1173.5q-43.5 -43.5 40.5 -173.5q27 -28 66.5 -36.5 t78.5 -13.5q78 8 156.5 56.5t103.5 125.5q0 158 -100.5 180.5t-221.5 -31.5q-80 -64 -123.5 -107.5z" />
<glyph unicode="9" horiz-adv-x="836" d="M12 1474.5q-1 80.5 15 94.5q59 168 250.5 223.5t339.5 -19.5q46 -10 113 -143.5t25 -171.5q-49 -123 -105.5 -236t-93.5 -241q-20 -53 -34 -117.5t-56 -97.5q-8 0 -16 -0.5t-15 -0.5q-104 30 -132 24.5t20 125.5q18 40 45 103.5t32 78.5q10 25 31.5 67.5t21.5 44.5 q-59 5 -118 -13.5t-119 22.5q-50 10 -108.5 62.5t-70.5 101.5q-24 12 -25 92.5zM216 1587.5q-109 -76.5 23 -215.5q25 -19 71 -30q0 -1 1 -2t2 -1q61 15 106.5 16.5t102.5 45.5q43 48 62 82t-11 95q-37 36 -53.5 59.5t-67.5 32.5q-127 -6 -236 -82.5z" />
<glyph unicode=":" horiz-adv-x="385" d="M44.5 915q-0.5 74 53.5 124.5t130 44t110 -138.5q0 -84 -48 -108t-125 -25q-120 29 -120.5 103zM62 1472.5q-22 55.5 9 109.5t96.5 79.5t128.5 -29.5q71 -81 37.5 -149t-131.5 -74q-2 0 -3 1.5t-2 2.5q-113 4 -135 59.5z" />
<glyph unicode=";" horiz-adv-x="340" d="M29 1507.5q6 76.5 95 133.5q30 2 58 1.5t56 -18.5q76 -92 61.5 -169t-152.5 -85q-7 4 -31 7q-93 54 -87 130.5zM31.5 890q-31.5 85 44.5 151q38 9 87 9.5t86 -20.5q75 -75 54.5 -159t-70.5 -161q-27 -32 -75.5 -70t-90.5 -44q-6 8 -10 12q4 18 72 88.5t32 100.5 q-98 8 -129.5 93z" />
<glyph unicode="&#x3c;" horiz-adv-x="649" d="M12 1183q14 58 75.5 134t100.5 130q9 50 48.5 79t58.5 69q9 0 74.5 91.5t78.5 125.5q31 12 35 47t52 -85q79 -88 20.5 -144.5t-100.5 -128.5q-9 -11 -48.5 -61t-81.5 -107t-71.5 -104.5t-17.5 -53.5q3 -12 68.5 -92t90.5 -87q17 -35 65 -69.5t76 -65.5 q83 -42 38.5 -123.5t-57.5 -138.5q-5 -3 -32 -5q-16 12 -53 61.5t-48 66.5q-67 55 -120 130t-113 135q-14 27 -86 101t-53 95z" />
<glyph unicode="=" horiz-adv-x="812" d="M20 1316.5q-4 66.5 6 86.5q171 24 332.5 32t337.5 3q12 -12 7.5 -71t-19.5 -74q-266 0 -503 -29q-36 -8 -71.5 -16t-68.5 -11q-17 13 -21 79.5zM45 1035q11 28 107.5 42.5t216 19t231 1.5t152.5 -10q12 -8 17 -64t-5 -66q-163 -2 -329 -3t-325 -32q-11 -14 -40 -16 q-20 32 -22.5 63t-2.5 65z" />
<glyph unicode="&#x3e;" horiz-adv-x="670" d="M61.5 1664q16.5 51 57.5 131q19 87 60.5 19.5t71.5 -89.5q27 -53 91 -103.5t94 -107.5q15 0 87.5 -107.5t114.5 -119.5q1 -79 -76 -163.5t-113 -158.5q-18 -26 -54 -75t-60 -61q-3 -7 -72 -108.5t-78 -106.5q-12 -16 -11 -27t-20 -14q-29 38 -71 126.5t20 122.5 q14 26 35.5 45.5t39.5 43.5q3 14 45 67.5t88.5 113.5t78.5 110t16 58q-10 24 -73.5 97t-82.5 79q-7 13 -58.5 60.5t-60.5 50.5q-86 66 -69.5 117z" />
<glyph unicode="?" horiz-adv-x="976" d="M73 1760.5q-33 76.5 28 88.5q39 42 120.5 53.5t172.5 4t176 -28t130 -41.5q101 -78 165.5 -189t-3.5 -253q-45 -55 -94.5 -108t-113.5 -72q-59 -9 -92 -15.5t-52 -8.5q-71 -1 -83.5 -13t-5 -29t16 -35.5t-19.5 -33.5q-42 -2 -83 -3t-81 -2q-36 14 -30 119.5t6 125.5 q75 27 147 26t150 26q49 6 96.5 27t77.5 66q28 129 -36.5 166.5t-169.5 69.5q-60 0 -183 -0.5t-159 -38.5q-15 -5 -23 -9t-14 -5q-10 36 -43 112.5zM155.5 836q4.5 65 32.5 82q18 36 120 32t112 -56q52 -17 28 -119t-84 -102q-17 -7 -21.5 -11t-25.5 -6q-39 10 -81 31 t-51 66q-34 18 -29.5 83z" />
<glyph unicode="@" horiz-adv-x="999" d="M-19 984q0 69 5.5 173t44.5 162q39 137 132.5 204t204.5 136q193 27 287 2.5t201 -183.5q9 -20 21 -50.5t27 -45.5q3 -70 25.5 -151.5t-22.5 -147.5q-31 -92 -117 -136.5t-177 -23.5q-26 20 -52.5 48.5t-50.5 16.5q-90 -84 -154 -78.5t-146 88.5q-9 60 -8 99t31 89 q35 92 160.5 183t206.5 -38q3 -68 14 -137t20 -136q28 -37 64.5 -10.5t61.5 82.5t29.5 123t-30.5 112q-18 62 -112 133t-157 47q-67 -5 -88 -25q-112 -40 -182 -157.5t-92 -228.5q0 -128 39.5 -229t172.5 -147q126 -11 236.5 3.5t203.5 120.5q61 1 75.5 -47.5t56.5 -66.5 q34 -58 -38 -67q-93 -55 -190 -80.5t-202 -32.5q-216 17 -328.5 99.5t-172.5 296.5zM326 1032q77 16 111 80t36 133q-52 -27 -101 -89t-46 -124z" />
<glyph unicode="A" horiz-adv-x="796" d="M-5 793q0 63 35 122.5t44 121.5q12 18 25.5 72.5t17.5 78.5q46 134 101 268t120 260q23 64 44 64q12 0 26 -25q34 -66 55 -105l70 -164t63 -168q18 -33 32 -71.5t31 -73.5q82 -2 83.5 -17t7.5 -102q-7 -15 -30 -17q4 -35 52 -122q30 -54 30 -80q0 -16 -11 -23 q-63 -6 -100 -29q-8 -5 -15 -5q-27 0 -46 69q-19 42 -37.5 91.5t-45.5 85.5q-172 -4 -325 -31q-15 -60 -35.5 -119t-30.5 -120q-11 -8 -38 -9q-26 19 -61 19h-3h-3q-36 0 -56 29zM271 1125q57 12 113 18t115 13q1 7 -10.5 31t-14.5 32q-9 14 -46 123t-55 112 q-15 -31 -63 -166q-41 -114 -40 -152q0 -7 1 -11z" />
<glyph unicode="B" horiz-adv-x="884" d="M13 1715q29 30 176.5 34t200.5 4q77 -8 160.5 -36.5t135.5 -76.5q56 -51 56 -120q0 -65 -80 -146q-29 -15 -55.5 -37.5t-51.5 -40.5q67 -34 145 -62.5t124 -99.5q39 -28 39 -61q0 -12 -5 -26q-20 -49 -55 -83q-333 -195 -698 -216q-11 3 -20 74.5t-15.5 157t-10 159 t-3.5 81.5q-13 120 -28 249t-15 246zM176 1483q18 -116 26 -158q93 9 208.5 27.5t162.5 115.5q-15 147 -138 150q-28 1 -56 1q-93 0 -183 -8q-25 -8 -25 -64q-1 -27 5 -64zM218 1184q0 -38 8 -146.5t22 -127.5q94 12 218.5 41.5t195.5 98.5q10 26 10 46q0 36 -34 58 q-52 32 -134 42q-46 5 -93 5q-35 0 -73 -3q-84 -7 -120 -14z" />
<glyph unicode="C" horiz-adv-x="872" d="M16 1289q24 145 139.5 252t245.5 159q41 10 137 32q33 8 58 8q45 0 57 -27l18 -136q0 -16 -102 -16q-37 -3 -40 -6q-148 -30 -244.5 -130.5t-120.5 -246.5q0 -42 9.5 -77.5t24.5 -76.5q60 -87 217 -89h10q150 0 232 43q19 6 79 30q40 16 62 16q10 0 16 -4q21 -36 45 -74 q21 -34 21 -74v-10q-121 -38 -216.5 -60.5t-225.5 -31.5q-27 0 -54 -0.5t-54 -0.5q-21 15 -63 25.5t-70 23.5q-132 111 -156.5 207t-24.5 264z" />
<glyph unicode="D" horiz-adv-x="850" d="M22 1628q-1 14 0 25q0 36 6 40q89 11 176 11q130 0 253 -24q206 -40 326 -258q15 -53 21 -119q1 -11 1 -22q0 -53 -22 -95q-46 -189 -260.5 -294.5t-382.5 -153.5q-8 0 -22 -3.5t-33 -3.5q-59 14 -59 65q0 57 54 88q1 17 1 34q0 79 -12 158q-14 96 -14 192 q-3 16 -10.5 83t-14 142t-8.5 135zM184 1522q-1 -19 -1 -38q-1 -62 7 -128q10 -88 16 -168q0 -12 10 -114t25 -127q110 15 245.5 107t163.5 200q0 65 -53 143.5t-117 96.5q-72 42 -146 42q-2 0 -4 1q-71 0 -146 -15z" />
<glyph unicode="E" horiz-adv-x="785" d="M16 1292q3 52 3 104q0 43 -2 87q-2 37 -2 73q0 58 5 116q174 11 352 20q112 5 223 5q65 0 130 -2v-19q0 -124 -12 -125l-11 1q-33 0 -153 -2q-72 -6 -119.5 -10.5t-254.5 -19.5q-8 -43 -8 -113t13 -100q12 0 68.5 5.5t120.5 11.5t117.5 7t59.5 -5q-1 -24 -5 -73t-14 -58 q-87 -3 -175 -13q-80 -9 -157 -9h-15q-3 -17 -2 -86v-25q0 -90 7 -97q137 3 275.5 16.5t278.5 19.5q1 -3 1 -14t-3 -74q9 -50 10 -59t1 -12q-174 -29 -358 -29t-359 -20q-13 107 -13 219v30q1 42 1 84q0 84 -3 166z" />
<glyph unicode="F" horiz-adv-x="769" d="M44 1632q-2 21 -2 36q0 40 11 51q169 18 336 24.5t339 6.5q1 -33 3 -66v-13q0 -26 -6 -53q-132 -4 -254 -12t-250 -26q-4 -68 -4 -136t9 -136q8 -1 20 -1q50 1 156 21q62 12 100 11q45 0 61 -15v-53q0 -104 -3 -104l-19 1q-45 0 -200 -9q-26 -5 -60 -8.5t-43 -6.5 q-2 -37 -2 -74q0 -55 4 -111q8 -93 8 -186q-34 -4 -65.5 -5.5t-63.5 -1.5q-37 13 -41 66q-2 26 -2 56q0 29 2 61q4 64 6 126v9q0 55 -23 85q-5 23 -15 39q-3 5 -2 11q0 13 14 28q15 6 15 53q0 10 -1 23q-4 69 -13 153t-15 156z" />
<glyph unicode="G" horiz-adv-x="844" d="M4 1201q0 211 105 342q28 25 47.5 48t55.5 43q0 15 58 41.5t79 31.5q57 25 144 25q20 0 41 -1q116 -7 182 -58q12 -3 12 -17q0 -15 -14 -44q-25 -54 -32 -78q-20 -1 -34.5 5t-31.5 12q-19 13 -69 13q-37 0 -91 -7q-127 -17 -147 -73q-90 -33 -115 -166q-13 -72 -13 -127 q0 -47 10 -83q36 -91 63.5 -123.5t122.5 -56.5q58 -5 131 -6q4 -1 7 -1q69 0 121 28q-17 196 -28 196q-1 0 -2 -1q-11 -17 -152 -29q-5 -2 -10 -2q-21 0 -36 54q-19 66 -20 90q23 12 179 31q93 11 142 11q34 0 47 -5q9 -25 9.5 -55t0.5 -57q1 -15 7.5 -72t13.5 -120t12 -113 t5 -51q-87 -37 -187.5 -46.5t-193.5 -12.5q-80 5 -154 26.5t-124 82.5q-141 111 -141 325z" />
<glyph unicode="H" horiz-adv-x="751" d="M47 987q0 170 5.5 340t5.5 339q10 34 82 48q28 5 49 6q32 0 45 -13v-8q0 -47 -11 -93q-9 -37 -9 -77q0 -14 1 -28l-8 -225q0 -3 22 -2q41 0 161 10q23 1 50 1q13 -1 28 -1h5q40 0 74 9q1 104 2.5 207.5t3.5 208.5q5 6 76 9t86 3v-85q0 -192 -4 -386q-4 -236 -4 -471 q-13 -11 -83 -13q-5 0 -10 -1q-62 0 -66 20q-1 89 -1 177.5v178.5h-8q-51 0 -185 -11q-144 -12 -148 -18q0 -28 10 -174q3 -53 3 -89q0 -64 -11 -73q-65 -13 -128 -14q-33 17 -33 84q0 8 1 18q2 38 2 67q0 35 -3 56z" />
<glyph unicode="I" horiz-adv-x="379" d="M92 770v71.5t0.5 155.5t1.5 155.5t2 72.5q5 119 11 240t6 239q7 8 67 8h14q73 -1 80 -16q0 -227 -13 -454t-14 -455q-6 -14 -58.5 -17.5t-68.5 -4.5q-8 1 -15 2t-13 3z" />
<glyph unicode="J" horiz-adv-x="689" d="M9 1143q18 15 77 25q20 4 36 4q31 0 45 -14q12 -146 86 -221q34 -34 83 -34q58 0 138 48q42 42 42 121q0 28 -5 60q-20 124 -30 196q-18 77 -34 193t-52 188q-6 42 -15 55.5t48 28.5q56 7 86.5 7t33.5 -7q8 -15 24 -118q3 -69 20.5 -138.5t22.5 -140.5q23 -34 23 -114 q0 -13 -1 -26q-1 -14 -1 -27q0 -77 21 -95q0 -143 -19 -197t-124 -128q-63 -34 -114 -39t-120 -5q-271 89 -271 378z" />
<glyph unicode="K" horiz-adv-x="810" d="M31 1752q7 0 79 8q33 3 52 3q24 0 29 -5q6 -72 10 -243t12 -169q55 57 126 118.5t132 125.5q33 23 90 96q47 60 74 60q6 0 11 -3q16 -36 69.5 -73t56.5 -64q-12 -15 -62.5 -53.5t-106.5 -80.5t-100.5 -77t-44.5 -42q-6 0 -68 -58t-64 -73q58 -42 113.5 -89t120.5 -86 q105 -106 145 -106h1.5h1.5q9 0 9 -9q0 -27 -84 -136q-12 -42 -27.5 -22t-45.5 37q-86 72 -170 151t-158 161q-14 7 -11 -43t8 -115t7 -123q0 -9 1 -16q0 -43 -12 -49q-98 -6 -160 -15l-7 14q-3 185 -8.5 370t-5.5 369q-2 22 -10 127q-5 62 -5 89q0 19 2 21z" />
<glyph unicode="L" horiz-adv-x="795" d="M38 1746v9q0 22 9 22q6 0 16 -10q21 5 83 7q14 1 24 0q40 0 47 -7q4 -197 8.5 -395t21.5 -394q125 4 250 22.5t252 18.5q0 -1 4.5 -90.5t4.5 -98.5q-168 -21 -334.5 -33.5t-331.5 -31.5q-37 200 -37.5 412.5t-4.5 415.5q-9 105 -12 153z" />
<glyph unicode="M" horiz-adv-x="954" d="M35 789q12 240 19 481t7 480q12 15 29 15q18 -1 40 -17q44 -32 91 -84.5t86.5 -106.5t54.5 -68q8 -21 47 -67.5t57 -59.5q12 0 48.5 49.5t78 111t77 117.5t45.5 68q17 52 60 52h5q47 -3 96 -9q11 -158 11 -317t1 -318q0 -1 5 -51.5t9 -112.5q5 -60 6 -114v-13 q0 -42 -6 -48h-102h-99q0 28 3.5 87.5t10.5 72.5q0 133 1.5 266.5t2.5 268.5q-14 -4 -70.5 -96t-61.5 -106q-30 -30 -67 -105q-20 -41 -39 -41q-16 0 -31 29q-59 58 -121 125t-104 140q-3 1 -9 5q0 -156 4 -312.5t3 -312.5q-5 -31 -21 -31q-1 1 -3 1q-19 2 -49 1 q-18 11 -40 11q-12 0 -24 -3q-36 -9 -51 12z" />
<glyph unicode="N" horiz-adv-x="832" d="M42 1607q-1 45 -1 76q0 62 4 67q6 8 147 8q72 -120 141 -243.5t144 -249.5q15 -49 60.5 -102t57.5 -99q5 0 8 90.5t4.5 207.5t1.5 229t-1 155q4 16 82 16h10q88 -1 93 -10q-3 -71 -7 -142.5t-4 -142.5q-9 -63 -9 -126v-13t1 -14q0 -63 -9 -125q0 -99 -10 -200t-10 -201 q7 -16 -15 -16h-4q-28 2 -37 2q-38 14 -55 14q-10 0 -13 -4q-1 -2 -3 -3q-10 0 -38 55q-95 126 -178 253t-164 262q-6 12 -23 50t-29 38q0 -11 5.5 -110.5t9.5 -216.5q3 -94 3 -175v-41q-1 -98 -13 -105q-6 -16 -53 -16h-16q-62 3 -79 18q5 117 5 235q0 85 -2 171 q-4 140 -5 280q0 64 1 128z" />
<glyph unicode="O" horiz-adv-x="872" d="M0 1214q6 100 17 165.5t72 144.5q15 39 80 80t98 63q4 68 36 69t107 1q35 4 67 4q217 -1 303 -195q59 -132 59 -265q0 -93 -29 -186q-23 -21 -31.5 -74t-45.5 -73q-93 -87 -161 -128.5t-197 -52.5q-9 6 -23 6t-23 1q-26 8 -104.5 35t-85.5 56q-58 0 -95 151t-44 198z M162 1374q-10 -67 -10 -128q0 -80 17 -150q31 -124 190 -185q46 2 91.5 3t84.5 34q27 6 53.5 38t42.5 52q75 130 75 265q0 53 -12 107q-15 33 -48 88t-71 62q-61 34 -118 34q-22 0 -44 -5q-77 -19 -148 -68q-34 -38 -58 -70t-45 -77z" />
<glyph unicode="P" horiz-adv-x="809" d="M31 1765q152 36 301 36q121 0 240 -24q83 -42 126 -72t80 -123q5 -40 5 -76q0 -116 -52 -178q-68 -82 -196 -165q-23 -6 -42.5 -18t-40.5 -16q-4 -5 -85.5 -24.5t-105.5 -22.5v-12q-1 -65 19 -136q19 -68 19 -129v-17q-38 0 -75 -6t-73 -7q-40 19 -40 50q1 8 3 16 q5 17 4 34q0 26 -11 53q-18 171 -31 344t-37 342q0 38 -5 76q-4 28 -4 54q0 11 1 21zM213 1606v-18q0 -52 4 -173q5 -145 31 -157q34 1 66 7t67 9q96 62 148 73q47 10 47 135q0 14 -1 31q-43 107 -148 107h-9q-112 -4 -205 -14z" />
<glyph unicode="Q" horiz-adv-x="1008" d="M10 1231q0 110 27 146q6 75 47.5 124.5t77.5 109.5q5 31 79 70t110 51q34 34 85 34q20 0 41 -4q79 -18 139 -27q19 -6 41 -11.5t38 -20.5q48 -25 132.5 -98.5t96.5 -133.5q29 -29 29 -149q0 -26 -1 -57q-8 -170 -53 -215q-27 -71 -50.5 -104.5t-77.5 -81.5v-5 q0 -43 43 -81q26 -24 26 -47q0 -19 -16 -37q-39 -18 -71 -41.5t-72 -25.5q-21 30 -38 90.5t-50 61.5q-43 -13 -96 -13q-43 0 -92 8q-110 20 -176 65q-59 16 -119.5 96.5t-72.5 137.5q-27 48 -27 158zM193 1144q9 -73 72 -128.5t132 -78.5q36 1 72.5 2t72.5 3q0 1 -4 10 t-29 62q0 33 27 46.5t60 25.5q27 23 42 23q18 0 20 -31q5 -57 40 -67q84 118 98 255q2 19 2 37q0 117 -80 218q-101 72 -206 72q-69 0 -141 -32q-96 -23 -158 -178q-37 -92 -37 -160q0 -45 17 -79z" />
<glyph unicode="R" horiz-adv-x="908" d="M22 1758q14 16 88 15q104 10 274 19q21 1 40 1q141 0 221 -54q48 -15 120 -84t83 -123q0 -93 -68.5 -168.5t-151.5 -108.5q-50 -58 -80 -58q-6 1 -12 3q-3 1 -4 1t-2 -1q0 -9 101 -99q22 -12 47.5 -41t45.5 -49q71 -52 92.5 -69.5t48.5 -36.5q0 -24 -53 -74 q-47 -45 -73 -45q-3 0 -6 1q-4 -28 -20.5 -7.5t-20.5 27.5q-92 87 -182 174t-177 174q-21 -2 -56.5 -3t-50.5 -9q-1 -19 -1 -39q-1 -74 9 -148q11 -87 11 -174v-15q-21 -9 -70 -12t-76 -5q-25 19 -27 16.5t-9 40.5q-3 217 -15 434t-24 433q-8 36 -8 57q0 20 6 27zM195 1630 q0 -88 4.5 -167t10.5 -164q49 1 96 3.5t97 12.5q20 6 75 27t105 51q49 30 75 67q10 15 11 30q0 22 -22 45q-35 95 -205 105q-57 4 -103 4q-93 0 -144 -14z" />
<glyph unicode="S" horiz-adv-x="879" d="M6 862q-4 5 -4 16q0 22 14 70q22 74 32 101q34 14 53 -12q108 -65 297 -93q28 -4 53 -5q145 0 196 135q1 6 1 12q0 52 -57 86q-92 35 -186 35q-47 -1 -94 -9q-23 -4 -45 -4q-113 0 -196 116q-56 38 -56 122q0 12 2 24q8 102 56 150q27 47 71 76t93 50q26 26 102 46 t157 24q20 1 39 1q58 -1 106 -11q64 -14 67 -53q-12 -26 -34.5 -80.5t-55.5 -54.5q-42 18 -84.5 20.5t-86.5 2.5q-86 -13 -178 -73q-55 -36 -55 -88q0 -35 25 -77q106 -42 209 -42h5h6q103 0 213 -33q64 -6 103 -60.5t64 -108.5q0 -226 -143 -302t-337 -79q-19 6 -37.5 5 t-33.5 8q-66 9 -143.5 35t-137.5 50z" />
<glyph unicode="T" horiz-adv-x="809" d="M17 1680q0 9 152 32q189 9 379 14.5t381 11.5q2 -3 23 -7q1 -21 -11.5 -75t-19.5 -77h-208t-183 -18q-15 -156 -21 -313t-6 -314q-3 -13 -3 -29q0 -26 8 -61q4 -18 3 -32q0 -27 -15 -36q-48 0 -94 -12t-88 -15q-7 8 -7 54q0 15 1 35q3 80 10.5 172.5t17 171.5t14.5 88 q0 70 8 142q6 57 5 111v29q-45 0 -181 -20q-57 -8 -93 -8q-50 0 -61 16z" />
<glyph unicode="U" horiz-adv-x="891" d="M25 1425q17 34 21 89t6 94q6 25 13.5 50.5t14.5 51.5q28 1 118 3h5q63 0 62 -34q0 -12 -7 -27q-32 -153 -53 -334q-4 -39 -5 -76q0 -136 61 -250q87 -79 156 -79q34 1 63 19q90 58 162 180q33 114 38 236q2 47 2 93q0 74 -5 148q-7 39 -7 65q0 40 18 43q28 6 139 6 q13 -3 22 -12q0 -24 -1 -74.5t-1 -233.5q-3 -77 -18 -147.5t-28 -145.5q-16 -27 -39.5 -91.5t-47.5 -76.5q-43 -57 -124 -101.5t-150 -54.5q-18 -1 -35 -1.5t-33 -0.5q-258 30 -306 242q-42 185 -42 367q0 26 1 52z" />
<glyph unicode="V" horiz-adv-x="809" d="M-62 1681q-10 10 -10 19q0 26 76 44q58 13 92 13q28 0 40 -9q38 -171 90.5 -327.5t115.5 -321.5q15 -51 24 -51q7 0 11 33q8 75 36 92q8 39 46.5 106.5t35.5 96.5q17 17 53.5 106t40.5 113q34 34 35 110.5t61 76.5q17 -8 117 -44q64 -23 65 -48q0 -13 -19 -27 q-87 -150 -152.5 -328t-170.5 -311q-23 -45 -60 -129t-78 -112q-12 -21 -28 -21t-40 -2q-47 61 -73.5 143t-64.5 151q-29 118 -86.5 228t-90.5 224q-15 41 -35 87t-31 88z" />
<glyph unicode="W" horiz-adv-x="1139" d="M11 1663q-1 4 -1 8q0 35 51 43q56 9 91 27q37 -1 53.5 -123.5t47.5 -170.5q1 -5 17 -65.5t37 -130.5t40.5 -126.5t28.5 -54.5q15 18 87.5 116.5t83.5 98.5q11 17 15 23t25 12q42 -6 97 -134.5t74 -128.5q54 169 114 342t97 347q-10 11 -10 16.5t9 5.5q18 0 70 -18 q108 -38 118 -43q1 -60 -32.5 -120.5t-46.5 -122.5q-36 -95 -74 -192.5t-68 -194.5q-27 -49 -69.5 -181t-88.5 -137q-64 44 -97.5 145t-82.5 130q-33 46 -31 32t-13 -14q-36 -43 -67.5 -86t-67.5 -85q-18 -30 -45 -60.5t-63 -30.5q-81 152 -135 319t-87 335 q-21 29 -35.5 113.5t-41.5 105.5z" />
<glyph unicode="X" horiz-adv-x="859" d="M36 1640q-30 30 -30 48t32 23q62 10 92 55q15 1 27.5 7.5t25.5 6.5q42 -84 96.5 -163.5t106.5 -159.5q6 -4 28.5 -39.5t31.5 -48.5q2 -1 36 53t75.5 122.5t79 132t47.5 82.5q27 40 40 40q3 0 5 -2q12 -12 56 -22q21 -22 55 -44q16 -10 16 -22q0 -15 -23 -34 q-50 -86 -126 -192q-30 -60 -73 -122.5t-81 -116.5q0 -70 99 -160t147 -147q16 -10 16 -26q0 -23 -36 -58q-59 -58 -82 -76q-45 1 -109.5 118.5t-112.5 156.5q-21 29 -33 29q-9 0 -13 -16q-10 -38 -32 -65q-27 -54 -59.5 -105.5t-62.5 -102.5l-12 -32t-27 -10 q-22 25 -83.5 46.5t-62.5 55.5q51 64 110.5 147t96.5 151q45 50 45 77q0 11 -8 19q-26 24 -79 95q-47 81 -111 151t-108 148z" />
<glyph unicode="Y" horiz-adv-x="858" d="M-4 1661q-1 0 -1 2q0 7 43 50q16 8 40 31t39 37q10 -1 96.5 -117.5t101.5 -131.5q33 -45 70 -91.5t64 -96.5q1 -1 3 -1q14 0 68 89q61 101 82 131q30 57 71 124.5t86 115.5q3 0 65 -40t65 -55q-19 -27 -25 -45q-94 -164 -210.5 -335.5t-185.5 -347.5 q-40 -26 -64.5 -122.5t-58.5 -101.5q-15 23 -97 52q-63 22 -63 57q0 12 6 24q4 0 33 46.5t61.5 103.5t59.5 105.5t27 51.5q-11 15 -66 84t-117 145.5t-113 138.5t-53 62q-18 33 -27 35z" />
<glyph unicode="Z" horiz-adv-x="914" d="M29 1730q145 5 293 16q116 9 233 9q32 0 64 -1q38 5 65 5q66 0 66 -32l-10 -151q-20 -14 -43 -43.5t-34 -50.5q-45 -57 -91.5 -133.5t-78.5 -142.5q-21 -26 -61 -81t-48 -87q-40 -47 -63 -91q57 9 122 24t125 15q33 6 155 24q41 6 71 6q60 0 77 -23q0 -52 -6.5 -103 t-6.5 -105q-102 6 -216 20q-42 5 -83 5q-69 0 -131 -15q-87 0 -173.5 -20.5t-170.5 -26.5q-10 18 -30 80q-8 24 -8 40q0 24 19 30q43 64 86 128.5t97 122.5q37 66 81.5 127t75.5 130q33 27 68.5 80t60.5 93q-104 -9 -206.5 -16t-203.5 -17q-51 0 -60.5 4.5t-17.5 48.5 q-12 11 -14.5 63t-2.5 68z" />
<glyph unicode="[" horiz-adv-x="492" d="M33.5 1737q-3.5 59 47.5 79q69 3 139 14.5t140 11.5q13 -7 30.5 -5.5t35.5 1.5v-70t-2 -58q14 -29 -19 -36.5t-79.5 -8t-89.5 -2t-48 -16.5q-3 -50 -5 -100t-4 -99q11 -144 16.5 -289t12.5 -288q21 -51 20 -49q57 -2 114.5 11t117.5 15q3 -30 4 -49.5t5 -104.5 q-77 -9 -154.5 -24t-150.5 -18q-85 9 -70.5 32.5t-10.5 83.5q-13 215 -23 432.5t-17 432.5q-6 45 -9.5 104z" />
<glyph unicode="\" horiz-adv-x="807" d="M-38 1674q33 39 67 65.5t73 60.5q2 0 37.5 -54t77 -118.5t76 -118.5t35.5 -54q21 -53 65.5 -110.5t72.5 -114.5q2 -1 34.5 -45.5t71 -100t71.5 -105.5t37 -62q19 -10 54 -61t35 -70q-38 -3 -71.5 -51.5t-66.5 -53.5q-4 15 -37.5 57.5t-46.5 56.5q-7 23 -19 31 q-54 85 -114.5 177t-124.5 167q-34 84 -102.5 152t-102.5 150q-27 26 -74.5 100t-47.5 102z" />
<glyph unicode="]" horiz-adv-x="540" d="M79.5 707.5q7.5 48.5 8.5 71.5q-15 36 19.5 39.5t82.5 -1.5t93 -7.5t52 21.5q17 196 26.5 391.5t22.5 390.5q-12 37 -126 32.5t-140 -10.5q-6 5 -5 84.5t7 96.5q19 0 81.5 -2t131 -6.5t123 -13t59.5 -21.5q-5 -104 -7.5 -211t-4.5 -213q-17 -174 -19 -349.5t-26 -347.5 q-36 -19 -179 -13.5t-192 5.5q-15 15 -7.5 63.5z" />
<glyph unicode="^" horiz-adv-x="767" d="M59 1319q-44 17 34 83q24 39 54.5 71t60.5 68q25 6 83.5 98.5t76.5 64.5q81 -29 138 -96t126 -148q10 -6 54.5 -49t19.5 -58q-21 -40 -38.5 -73.5t-65.5 -35.5q-7 11 -30.5 37t-29.5 26q0 6 -75 109t-87 109q-18 -34 -102 -154.5t-123 -122.5q-52 54 -96 71z" />
<glyph unicode="_" horiz-adv-x="1004" d="M58 876q3 2 15 5t21 8q195 5 391.5 18t393.5 13q39 -29 52 -10.5t15 -67.5q11 -90 10.5 -97t-94.5 -7q-4 -2 -93 -3t-201 -2t-216.5 -2t-138.5 -2q-13 -3 -29.5 -4t-103.5 -6q-18 13 -20 74t-2 83z" />
<glyph unicode="`" horiz-adv-x="539" d="M26 1757q-21 43 52 62t106 19q39 -40 44 -149.5t-34 -148.5q-12 -44 -58.5 -79.5t-87.5 -42.5q-24 18 -3.5 35t27.5 42q37 59 17 136.5t-63 125.5zM277 1803q42 0 102 26.5t99 -3.5q36 -98 17 -207t-112 -171q-15 -21 -45 -27q-30 24 -30.5 30t22.5 35q27 57 32 107.5 t-32 100.5q-9 26 -42.5 56t-10.5 53z" />
<glyph unicode="a" horiz-adv-x="764" d="M25 1476q0 45 70.5 73.5t160.5 41.5q81 12 156 12q10 -1 18 -1q84 -2 109 -16q75 -12 129 -80q46 -58 47 -124q0 -11 -2 -22q8 -39 8 -86q1 -39 -5 -84q-12 -98 -23 -172q-5 -64 -10 -124t-26 -123h-14q-31 0 -83 3q-64 4 -70 40q-4 0 -69.5 -27.5t-68.5 -29.5 q-28 -6 -53.5 -10.5t-52.5 -4.5q-30 14 -96 45t-66 62q-51 27 -55 131v18q0 88 35 124q62 116 204 146q51 11 99 11q86 0 163 -35q10 1 10 17q0 18 -12 55q-22 70 -24 88q-39 38 -110 38q-38 0 -84 -10q-134 -30 -185 -84q-42 -21 -51.5 6.5t-26.5 63.5q-6 24 -22 58z M170 986q28 -84 120 -102q28 1 59 0.5t58 14.5q90 26 98 55t10 119q-45 65 -127 73q-11 1 -23 1q-67 0 -119 -40q-82 -29 -82 -88q0 -15 6 -33z" />
<glyph unicode="b" horiz-adv-x="848" d="M52 1461q-1 62 -1 124q0 166 9 331q36 21 68 21q8 0 16 -1q39 -7 86 -31q0 -25 -3 -91.5t-3 -139t4.5 -133.5t19.5 -75q50 50 130 66q41 8 79 8q36 0 71 -7q41 -27 83 -34.5t70 -52.5q83 -59 105 -188q12 -72 12 -132q0 -47 -7 -86q-49 -166 -183 -254q-61 -40 -133 -41 q-85 0 -186 57q-31 31 -26.5 7t4.5 -51q-45 -3 -87 -11.5t-85 -11.5q-35 48 -35 113q0 8 1 16q2 27 2 53q0 46 -6 89q-1 227 -5 455zM253 1043q11 -87 153 -111q102 1 135 22t96 100q21 68 21 115q0 25 -6 44q-18 54 -101 121q-72 9 -127 9q-18 0 -34 -1q-65 -4 -131 -86 q-10 -76 -10 -139q0 -40 4 -74z" />
<glyph unicode="c" horiz-adv-x="695" d="M11 1108q-1 15 -1 30q0 185 83 288q65 114 200 168q76 30 149 30q57 0 113 -18q19 -28 30 -14t14 -30q-16 -25 -16.5 -86t-27.5 -63q-79 23 -129 23q-14 0 -27 -2q-55 -8 -140 -58q-20 -17 -27 -30q-70 -77 -71 -188q0 -15 2 -31q11 -131 130 -180q16 -29 82 -29 q26 0 59 4q119 16 164 44q10 2 17 2q42 0 42 -53v-11q-5 -74 -71 -89q-42 -49 -137 -49h-9q-102 2 -150 3q-11 0 -61 12t-50 28q-5 0 -14 19q-147 74 -154 280z" />
<glyph unicode="d" horiz-adv-x="770" d="M7 1206q20 114 127 206q27 49 81.5 72t105.5 35q17 18 39 17q24 0 54 -21q58 -41 91 -54q0 25 -2.5 99t-3.5 152v35q1 58 3 105q4 61 15 61q0 11 39 15q22 3 45 2q19 0 37 -2q42 -4 69 -15q14 -6 14 -15q0 -8 -12 -19q0 -13 -5 -91t-9 -83q0 -225 2 -452v-65 q0 -194 -8 -387q-32 -26 -84 -26h-4q-55 1 -58 54q-76 -38 -132.5 -50.5t-140.5 -14.5q-84 45 -137 77.5t-104 121.5q-28 87 -28 168q0 38 6 75zM178 1126q-2 -15 -2 -29q0 -78 51 -106q0 -21 32.5 -26t44.5 -13q87 1 162 34q0 6 24 23.5t36 21.5q1 4 1 45q-1 31 -1 83 q-2 121 -16 130q-24 55 -137 55h-7q-120 -2 -132 -71q-46 -45 -56 -147z" />
<glyph unicode="e" horiz-adv-x="825" d="M21 1128q11 98 26 144q3 34 23.5 68.5t35.5 65.5q113 133 271 170q38 9 76 9q117 0 227 -87q62 -76 75 -150q8 -48 8 -105q0 -31 -2 -65q-9 -10 -135 -26q-101 -13 -130 -13q-7 0 -10 1q-35 -16 -82 -16q-30 0 -66 6q-29 5 -54 6q-56 0 -97 -25q9 -153 135 -169 q66 -9 129 -8q57 0 112 7q90 30 130 59q10 7 20 7q33 0 73 -68v-34.5v-34.5q-188 -97 -388 -101q-16 12 -76 17t-75 21q-52 13 -117.5 75.5t-74.5 113.5q-36 28 -36 97q0 16 2 35zM202 1258q32 0 51.5 2t104.5 11q26 1 65 1h67q7 0 12 -1q76 0 116 17v6q0 108 -110 131 q-43 9 -82 9q-62 0 -110 -24q-24 -19 -70 -70t-44 -82z" />
<glyph unicode="f" horiz-adv-x="701" d="M18 1408q36 2 90.5 10t89.5 19q7 129 31.5 311t201.5 201q45 15 110 21q12 1 24 1q49 0 86 -20q9 -19 13 -120v-12q0 -55 -24 -55q-14 0 -35 17q-25 2 -47 2q-140 0 -158 -83q-18 -87 -18 -210v-24h8q32 0 108 18q42 9 69 9q29 0 41 -11q0 -43 1.5 -85t2.5 -84 q16 -17 -29 -19t-99.5 -4t-92.5 -11.5t-7 -39.5q18 -104 29 -212.5t57 -199.5q-1 -42 -4.5 -44.5t-42.5 -5.5q-32 -16 -72 -19t-73 -5q-39 6 -56 28q-14 107 -14 224v9q1 17 1 34q0 103 -3 199q-41 -4 -76.5 -22.5t-68.5 -18.5q-16 16 -39 99q-12 46 -12 73q0 21 8 30z" />
<glyph unicode="g" horiz-adv-x="784" d="M24 1102q5 102 11 138q71 145 154 198q56 37 150 37q46 0 101 -9q36 -12 72 -40q12 -9 21 -9q15 0 18 32q7 8 9.5 14t13.5 14q76 0 105 -12t41 -89q0 -132 14 -266q5 -52 5 -105q0 -81 -13 -163q0 -77 -34.5 -137t-56.5 -122q-66 -75 -130.5 -107t-169.5 -35 q-24 7 -64 9.5t-53 17.5q-52 5 -118 46q-43 25 -43 61q0 21 14 45q5 42 33 42q9 0 21 -4q47 -19 76 -39q60 -20 114 -20q62 0 117 26q102 49 132 186q13 21 7 50.5t-30 -10.5q-88 -81 -183 -81q-44 0 -90 17q-144 54 -214 192q-31 18 -31 99q0 11 1 24zM174 1078 q8 -9 20 -41.5t27 -32.5q0 -27 65.5 -44.5t85.5 -26.5q92 4 166 60q50 63 50 137q0 34 -11 70q-34 114 -143 147q-22 3 -43 3q-104 0 -164 -63q-57 -59 -57 -156q0 -25 4 -53z" />
<glyph unicode="h" horiz-adv-x="807" d="M80 940q6 140 12 197v387v386q38 32 84 36q32 3 66 3q15 0 31 -1q9 -17 9 -44t-3 -48q0 -14 0.5 -85.5t1.5 -152t3 -146.5t5 -67q62 45 170 45q18 0 38 -1q136 -9 190 -94q36 -18 51.5 -80t30.5 -98q0 -6 -0.5 -76t-5.5 -152.5t-14.5 -151.5t-29.5 -73q-33 10 -101 22 q-51 9 -52 35q0 9 6 20q5 42 15 83t17 82v15q0 135 -17 204q-18 73 -187 73q-79 -45 -97 -45t-18 -105q-9 -60 -9 -119q0 -22 2 -44q4 -65 3 -134v-30q-37 -22 -68 -22q-6 1 -12 1q-35 6 -85 11q-37 24 -37 135q0 16 1 34z" />
<glyph unicode="i" horiz-adv-x="391" d="M68 1768q32 89 74 89l2 -1q42 -2 74.5 -43.5t45.5 -98.5q5 -20 5 -36q0 -29 -16 -42q-24 -9 -32 -12.5t-26 -8.5q-46 21 -95 48q-36 20 -36 68q0 17 4 37zM87 1387q-10 31 -10 49q0 24 17 24h2q15 -1 35 -2q24 0 54 2q27 7 44 7q34 0 34 -26l-1 -69v-40q25 -12 0 -10v-21 q0 -189 34 -377v-16q0 -116 -28 -136q-30 -20 -129 -28q-25 20 -25 139v14q2 132 2 169q-7 81 -12.5 160.5t-16.5 160.5z" />
<glyph unicode="j" horiz-adv-x="714" d="M156 810q57 -3 37.5 -31t13.5 -47q11 -72 94 -124h50.5h51.5q73 34 73 145q0 26 -4 56q-21 159 -25 250q-12 17 -7.5 42t-8.5 34q-3 58 -16 106t-13 99q21 15 94 18q13 1 24 1q53 0 69 -12q0 -71 1 -119t11 -133q5 -132 42 -329q8 -43 8 -82q0 -134 -100 -204 q-60 -27 -110 -42t-115 -16q-94 27 -143 44t-114 98q-66 110 -66 152q0 43 153 94zM346 1602q34 98 159 98q20 -7 48 -19t39 -34q-3 -96 -6 -122.5t-72 -60.5q-23 0 -71 -2q-105 33 -105 102q0 18 8 38z" />
<glyph unicode="k" horiz-adv-x="786" d="M74 1311q6 141 14 281.5t13 281.5q41 3 81 10.5t82 7.5v-23q0 -135 -11 -273q-12 -150 -24 -293q11 0 45 41.5t47 51.5q26 36 107 116.5t117 81.5q29 -30 67 -56t72 -52q8 -14 8 -27q0 -43 -80 -77q-104 -44 -126 -80q-46 -29 -69.5 -54.5t-55.5 -64.5q-29 -16 9.5 -33 t49.5 -35q62 -34 119 -76.5t120 -78.5q27 -5 48 -5q9 0 17 1h2q14 0 14 -20q0 -13 -6 -34q-47 -48 -50 -93.5t-88 -49.5q-75 89 -170 156.5t-188 135.5q-9 -1 -9 -46q0 -29 4 -75q8 -107 8 -146v-8q-43 -9 -96 -15q-5 -1 -10 -1q-45 0 -55 53q0 250 -6 498z" />
<glyph unicode="l" horiz-adv-x="379" d="M72 909q0 122 5 166q-1 155 -5 311q-2 82 -2 165q0 73 2 147q18 155 20 170.5t164 15.5q3 -158 3 -315q0 -94 -1 -189q-1 -46 -1 -94q0 -205 11 -410q-18 -24 -4 -58q5 -12 4 -24q0 -20 -15 -35q-39 -1 -76 -3.5t-73 -4.5q-32 36 -32 158z" />
<glyph unicode="m" horiz-adv-x="1010" d="M36 1507q96 3 118 11q2 1 4 1q19 0 22 -73q3 -3 47 27t52 34q31 3 58 9q9 2 19 2q19 0 40 -8q82 -9 96 -64q6 -23 25 -23q25 0 75 44q86 48 153 48q45 -1 81 -23q90 -56 129 -214q1 -16 4 -91q2 -45 2 -94q0 -33 -1 -68q-2 -87 -12.5 -162t-37.5 -90q-5 -23 -19 -23.5 t-35 -0.5q-43 15 -66 27q-11 6 -11 20q0 15 14 41q8 113 23 221q7 52 7 106q0 57 -8 117q-39 60 -86 60q-14 0 -29 -6q-64 -24 -92 -100q-3 -105 -15 -107q-5 -1 -23 -1q-29 0 -93 2q-16 24 -15 50t1 53q-26 124 -102 124q-43 0 -102 -40q-33 -8 -45 -65q-11 -52 -11 -117 v-11q1 -71 8.5 -139.5t12.5 -97.5q-3 -113 -19 -121q-10 -5 -51 -5q-26 0 -63 2q-12 11 -18 94t-9 181.5t-4 185.5t-1 106q-9 37 -17 89q-7 42 -6 75v14z" />
<glyph unicode="n" horiz-adv-x="743" d="M35 1543q14 15 76 17q8 0 16 1q49 0 69 -14q0 -12 -3 -52.5t11 -32.5q26 48 128 80q65 20 111 21q26 0 45 -7q95 -6 155 -87q58 -139 58 -292q0 -19 -1 -39q-8 -174 -20 -337q-9 -11 -7 -37q-36 12 -71.5 15t-68.5 16q-1 20 -1 41q0 105 25 236q9 46 9 87q0 99 -51 168 q-7 46 -81 51q-12 1 -22 1q-55 0 -77 -22q-81 -33 -118 -110q-9 -8 -10 -67v-40q0 -42 1 -88q2 -70 6 -129.5t6 -67.5q0 -87 -20 -87h-2q-7 1 -22 1q-29 0 -86 -5q-29 22 -29 125q1 5 1 11q2 112 1 142q-25 246 -28 501z" />
<glyph unicode="o" horiz-adv-x="707" d="M14 1184q20 104 63 166q18 6 45 54t58 60q9 8 29 24q37 53 159 54h4q119 0 151 -51q61 -37 107.5 -119t54.5 -154q12 -14 12 -51q-1 -23 -5 -57q-12 -86 -25 -125q-26 -40 -58.5 -83t-76.5 -67q-30 -45 -110.5 -65t-130.5 -21q-25 18 -49 20t-51 24q-64 15 -111.5 86.5 t-52.5 131.5q-21 43 -21 99q0 35 8 74zM119 1153q0 -80 24 -121.5t79 -93.5q3 -1 21 -9t19 -9q35 1 105 1q60 29 94 53t73 62q31 86 31 132q0 16 -4 28q-16 42 -45 140q-48 49 -129 67q-20 4 -38 4q-55 0 -92 -42q-115 -64 -138 -212z" />
<glyph unicode="p" horiz-adv-x="769" d="M30 1508q5 20 78 28q19 3 35 3q43 0 61 -17q57 0 142 2h6q82 0 128 -41q76 -19 149 -132.5t81 -190.5q12 0 12 -25q0 -24 -10 -70q-22 -95 -60 -112q-56 -72 -186.5 -101.5t-216.5 -29.5q-2 -24 -2 -48q0 -55 9 -113q14 -84 14 -163q-16 -15 -73 -18t-80 -4 q-20 26 -20 72q0 13 1 26q2 20 2 35q0 36 -12 49q-9 213 -33.5 427t-24.5 423zM206 1330q-2 -24 -2 -50q0 -59 10 -128q14 -97 20 -179l-2 -1q-2 0 12 5q109 9 220 45.5t111 173.5q-10 18 -22.5 39.5t-28.5 29.5q-55 79 -138 79h-10q-89 -5 -170 -14z" />
<glyph unicode="q" horiz-adv-x="695" d="M9 1128v9q0 45 18 56q3 46 49 144t86 108q36 36 129 52q25 4 46 4q57 0 83 -32q52 -7 54.5 -9t22.5 55h3q8 0 43 -2q46 -3 63 -5q46 -44 46 -148q0 -21 -2 -45q-11 -140 -11 -224q-17 -71 -17 -167q0 -53 5 -114q15 -170 15 -296q-7 -6 -59 -12.5t-71 -7.5q-8 4 -35 11 q-5 59 -5 114q0 18 1 37q2 72 2 151q-89 -31 -179 -36h-11q-83 0 -151 69q-33 8 -61.5 60t-45 113.5t-18.5 114.5zM167 1128q0 -86 30 -126.5t102 -74.5q60 1 112.5 19t59.5 88q0 64 -2.5 132t-14.5 127q-55 55 -109 55q-41 0 -81 -32q-92 -72 -97 -188z" />
<glyph unicode="r" horiz-adv-x="707" d="M48 1321q-12 74 -12 118q0 52 17 62q83 1 121 11q4 1 8 1q31 0 33 -76q24 9 41 24.5t47 22.5q55 27 122 27q31 1 63 -5q104 -18 171 -79q26 -4 26 -23q1 -19 -25 -54q-50 -70 -86 -70q-82 56 -169 56h-15q-96 -6 -165 -92q3 -107 14 -212t26 -212q0 -51 -54 -52t-93 -2 q-27 30 -32 155.5t-6 174.5q-6 62 -32 225z" />
<glyph unicode="s" horiz-adv-x="707" d="M20 928q32 32 64 74q16 1 45.5 -21t54.5 -25q42 -44 124 -44h22q98 6 148 50q20 11 33 34q0 82 -44.5 108.5t-108.5 49.5q-71 11 -128.5 26t-96.5 82q-43 22 -43 64q0 26 17 60q44 88 89 121q44 66 146 76q73 7 132 7q23 0 44 -1q48 -21 48 -49v-8q-8 -33 -16 -93 q-82 5 -138 17q-8 2 -16 2q-49 0 -105 -58q-20 -11 -18.5 -30t1.5 -40q39 -41 101 -57t122 -32.5t105.5 -47.5t53.5 -103q15 -16 15 -49q0 -21 -6 -49q-16 -70 -48 -93q-7 -17 -25 -20q-81 -69 -142.5 -86t-165.5 -19q-41 21 -122 32.5t-108 60.5q-45 20 -45 41q1 10 11 20z " />
<glyph unicode="t" horiz-adv-x="657" d="M1 1594q-1 26 41 32q38 5 84 5q4 -1 8 -1h34q34 0 64 1q46 1 53 20q-1 14 -3 124v7q0 72 22 72q9 0 22 -13q151 0 151 2q0 17 -17 -98q0 -21 -0.5 -33.5t-5.5 -63.5h128q3 0 7 1q61 0 124 -9q-6 -22 -15.5 -86.5t-18.5 -71.5q-12 -3 -42.5 -3.5t-203.5 -2.5 q-27 -93 -27 -212q0 -22 1 -46q6 -148 6 -266q12 -25 12.5 -91.5t0.5 -102.5q-30 -6 -64.5 -7.5t-64.5 -3.5q-42 9 -36 41t6 70q-13 108 -13 218q0 46 2 92q8 156 14 311q-56 0 -111 -10.5t-109 -16.5q-22 34 -22 73v8q0 3 1 6q0 38 -28 55z" />
<glyph unicode="u" horiz-adv-x="721" d="M20 1088q-6 32 -6 62q0 48 15 90q0 35 1 128.5t43 106.5q21 0 67.5 -0.5t61.5 -14.5v-36q0 -106 -15 -197q-6 -33 -6 -69q0 -76 27 -160q19 -30 75 -55q100 0 148.5 57t66.5 140q16 75 16 157v18q-1 61 -1 113v49q20 5 23 12.5t35 7.5q17 -12 47.5 -11.5t52.5 -0.5 q7 -59 7 -121q0 -72 -10 -148q-18 -142 -63 -263q-9 0 -10.5 -8.5t-10.5 -13.5q-27 -61 -127 -108t-162 -58q-2 2 -6 4q-161 8 -240 167q-14 70 -29 152z" />
<glyph unicode="v" horiz-adv-x="865" d="M13 1402q-2 49 48.5 58t83.5 33q22 0 29 -7q1 -59 37 -140t58 -136q31 -61 53.5 -124.5t60.5 -123.5q65 132 138.5 260.5t139.5 260.5q4 24 23 24q12 1 30 -9q48 -24 71 -37q27 -8 27 -23q0 -6 -5 -14q-17 -24 -23 -50q-117 -129 -185 -283t-177 -282q-12 -24 -21.5 -42 t-36.5 -21q-63 84 -111 192.5t-87 205.5q-37 66 -64 144.5t-89 113.5z" />
<glyph unicode="w" horiz-adv-x="960" d="M5 1453q21 21 119 53q27 9 45 9q35 0 36 -34q0 -11 -4 -26q25 -110 54 -208.5t63 -206.5q9 -16 17.5 -28t16.5 17q46 72 104 150q20 27 41 27q38 0 77 -95q56 -97 64 -113q1 -2 3 -2q11 0 52 110q29 64 51 132.5t52 131.5q6 19 22.5 71t41.5 53q49 -25 78 -25q10 0 18 3 q4 1 6 1q12 0 12 -23q0 -19 -8 -54q-26 -73 -53.5 -144.5t-51.5 -145.5q-18 -45 -80.5 -197t-108.5 -156q-33 47 -70 92.5t-69 93.5q-21 13 -26.5 31t-20.5 -12q-22 -27 -54 -76t-66 -80q-29 -26 -56 -26h-10q-32 6 -51 88q-60 105 -109 227.5t-92 235.5q-16 27 -29.5 61 t-13.5 65z" />
<glyph unicode="x" horiz-adv-x="667" d="M27 835q-1 3 -1 7q0 40 76 112q82 80 92 120q20 25 34 52q3 6 3 13q0 20 -33 40q-34 62 -84.5 131.5t-63.5 136.5q15 8 60.5 47t48.5 39q3 -29 77 -159q72 -128 90 -127h1q45 65 106 134.5t91 141.5q15 19 22 19q4 0 5 -6q3 -16 28 -28q46 -53 46 -61q0 -1 -1 -2l-2 1 q-14 4 -27 -51q-48 -48 -85 -101t-86 -106q-3 -13 -23 -35q0 -42 79 -152t112 -145q-28 -27 -55 -53.5t-57 -49.5q-6 34 -86 147.5t-91 115.5q-37 -53 -85 -123.5t-65 -126.5h-4q-55 0 -67 28t-55 41z" />
<glyph unicode="y" horiz-adv-x="765" d="M0 1346q28 16 74 80q20 28 36 28q19 0 32 -43q15 -20 57 -84t88 -131.5t83 -119.5q33 -46 41 -46q1 0 2 1q21 94 74 190.5t64 192.5q20 25 34 56q6 15 17 15q14 0 35 -22q41 -16 65.5 -17.5t26.5 -50.5q-31 -55 -58 -109t-46 -113q-10 0 -40 -101.5t-54 -116.5 q-29 -100 -86 -194.5t-69 -204.5q-15 -22 -26 -59.5t-28 -52.5q-3 3 -63 42t-66 42q7 63 54 155t68 158q6 10 14.5 27.5t8.5 29.5q-52 64 -102 127.5t-100 128.5q-23 14 -79.5 90t-56.5 102z" />
<glyph unicode="z" horiz-adv-x="723" d="M48 852q-8 19 -8 35q0 25 20 45q36 21 86.5 101t70.5 80q29 34 115.5 132t97.5 98q0 5 23.5 26.5t33.5 27.5q0 11 -51.5 3t-117.5 -23t-128.5 -31t-84.5 -19q-7 -27 -17 -27q-15 0 -37 58q-19 50 -19 82t17 49q26 1 63 15q35 4 134 16q100 14 198 20q47 3 87 3 q43 0 77 -4q42 -5 41 -21q0 -9 -12 -21l2 -94q0 -51 -44 -64q-20 -18 -65.5 -69.5t-93.5 -106t-88 -97t-48 -42.5q0 -10 -58 -60q-36 -31 -36 -43q0 -8 14 -9q173 57 355 69q30 6 48 6q29 0 29 -14v-17q0 -31 2 -99q12 -12 12 -21q0 -16 -46 -20q-70 -6 -73 -6 q-114 -6 -226 -21t-223 -18q-28 33 -50 81z" />
<glyph unicode="{" horiz-adv-x="457" d="M24.5 1270q-39.5 6 65.5 65q37 45 71 88.5t-40 100.5q-35 99 42.5 188.5t157.5 131.5q44 62 56.5 15.5t48.5 -66.5q10 -20 10 -35q-69 -49 -137.5 -100t-30.5 -156q39 -50 29 -96.5t-44 -94.5q-27 -12 9.5 -61.5t48.5 -74.5q7 -57 2 -70t-28 -58q-53 -68 -31.5 -135 t71.5 -119q93 -42 88 -62.5t-51 -84.5q-9 -9 -16 -18.5t-17 -15.5q-103 87 -178.5 181.5t-16.5 241.5q8 36 35 97.5t-50 77.5q-55 54 -94.5 60z" />
<glyph unicode="|" horiz-adv-x="354" d="M92 786.5q4 62.5 18.5 138t25.5 143t-7 86.5q0 56 46 61t97 -8q9 -10 8.5 -73.5t-5 -136.5t-10.5 -132.5t-6 -60.5q-9 -85 -29.5 -86t-108.5 -2q-33 8 -29 70.5zM151 1339q9 9 11.5 89.5t2.5 101.5q23 50 4 141t11 141q158 4 156.5 -14.5t-20.5 -159.5q-7 -84 -14.5 -169 t-27.5 -164q-7 -7 -42 -9q-32 19 -56.5 8t-24.5 35z" />
<glyph unicode="}" horiz-adv-x="494" d="M61 758q33 49 93 73.5t81 99.5v72t-29 62q-13 32 -0.5 96.5t48.5 79.5q17 25 -46.5 99.5t-12.5 139.5q6 17 17 37q63 63 -12.5 144.5t-122.5 105.5q3 18 36.5 58.5t47.5 59.5q16 1 59.5 -38.5t85.5 -91t68 -100.5t9 -67q-33 -111 -54.5 -152t77.5 -144q12 -8 38.5 -19.5 t25.5 -26.5q-51 -28 -105 -78t-25 -117q36 -38 45.5 -92.5t-25.5 -101.5q-26 -65 -92 -120t-116 -102q-7 -1 -14 -1.5t-13 -0.5q-11 21 -37.5 63.5t-26.5 61.5z" />
<glyph unicode="~" horiz-adv-x="905" d="M30 1224q57 1 118 74.5t139 73.5q18 15 78 9t75 -31q59 -32 91 -77t126 0q31 18 62 39t49 56q44 24 69 -53.5t18 -108.5q-64 -45 -158.5 -104.5t-176.5 -21.5q-76 54 -110.5 110.5t-133.5 5.5q-30 -24 -82.5 -64.5t-59.5 -76.5q-6 -1 -10.5 -2t-9.5 -1q-9 18 -15 17 t-15 8q-6 43 -30.5 72.5t-23.5 74.5z" />
<glyph unicode="&#xad;" d="M26 1245v6.5v7.5q16 19 130 33.5t246 21.5t243 6t122 -13q0 -2 -1.5 -80t-5.5 -82q-126 -1 -250 -5.5t-248 -7.5q-42 -5 -85 -13.5t-84 -10.5q-34 20 -35.5 71.5t-31.5 65.5z" />
<glyph unicode="&#x2000;" horiz-adv-x="985" />
<glyph unicode="&#x2001;" horiz-adv-x="1971" />
<glyph unicode="&#x2002;" horiz-adv-x="985" />
<glyph unicode="&#x2003;" horiz-adv-x="1971" />
<glyph unicode="&#x2004;" horiz-adv-x="657" />
<glyph unicode="&#x2005;" horiz-adv-x="492" />
<glyph unicode="&#x2006;" horiz-adv-x="328" />
<glyph unicode="&#x2007;" horiz-adv-x="328" />
<glyph unicode="&#x2008;" horiz-adv-x="246" />
<glyph unicode="&#x2009;" horiz-adv-x="394" />
<glyph unicode="&#x200a;" horiz-adv-x="109" />
<glyph unicode="&#x2010;" d="M26 1245v6.5v7.5q16 19 130 33.5t246 21.5t243 6t122 -13q0 -2 -1.5 -80t-5.5 -82q-126 -1 -250 -5.5t-248 -7.5q-42 -5 -85 -13.5t-84 -10.5q-34 20 -35.5 71.5t-31.5 65.5z" />
<glyph unicode="&#x2011;" d="M26 1245v6.5v7.5q16 19 130 33.5t246 21.5t243 6t122 -13q0 -2 -1.5 -80t-5.5 -82q-126 -1 -250 -5.5t-248 -7.5q-42 -5 -85 -13.5t-84 -10.5q-34 20 -35.5 71.5t-31.5 65.5z" />
<glyph unicode="&#x2012;" d="M26 1245v6.5v7.5q16 19 130 33.5t246 21.5t243 6t122 -13q0 -2 -1.5 -80t-5.5 -82q-126 -1 -250 -5.5t-248 -7.5q-42 -5 -85 -13.5t-84 -10.5q-34 20 -35.5 71.5t-31.5 65.5z" />
<glyph unicode="&#x2013;" horiz-adv-x="1088" d="M26 1245v6.5v7.5q22 19 179.5 33.5t340 21.5t336 6t168.5 -13q0 -2 -2 -80t-8 -82q-174 -1 -345.5 -5.5t-342.5 -7.5q-58 -5 -117.5 -13.5t-115.5 -10.5q-47 20 -49.5 71.5t-43.5 65.5z" />
<glyph unicode="&#x2014;" horiz-adv-x="2112" d="M26 1245v6.5v7.5q44 19 359 33.5t680 21.5t672 6t337 -13q0 -2 -4 -80t-15 -82q-349 -1 -691.5 -5.5t-685.5 -7.5q-116 -5 -235 -13.5t-232 -10.5q-94 20 -98 71.5t-87 65.5z" />
<glyph unicode="&#x202f;" horiz-adv-x="394" />
<glyph unicode="&#x205f;" horiz-adv-x="492" />
<glyph unicode="&#x25fc;" horiz-adv-x="1540" d="M0 0v1540h1540v-1540h-1540z" />
</font>
</defs>
</svg>
